
<svg xmlns="http://www.w3.org/2000/svg" width="284" height="89" viewBox="0 0 142 44">
  <g fill="#FFFFFF" fill-rule="evenodd">
    <path d="M36.8030588 7.84030189C39.3970647 7.84030189 39.9157824 6.42981132 39.9157824 4.90890566 39.9157824 3.38841509 39.3970647 1.97833962 36.8030588 1.97833962 34.1768941 1.97833962 33.6581765 3.38841509 33.6581765 4.90890566 33.6581765 6.42981132 34.1768941 7.84030189 36.8030588 7.84030189M27.9172 7.84030189C30.5095353 7.84030189 31.0282529 6.42981132 31.0282529 4.90890566 31.0282529 3.38841509 30.5095353 1.97833962 27.9172 1.97833962 25.3236118 1.97833962 24.7689765 3.38841509 24.7689765 4.90890566 24.7689765 6.42981132 25.3236118 7.84030189 27.9172 7.84030189M36.6556294 11.7123019C36.2860118 10.3773585 34.8814647 9.82071698 32.6211588 9.82071698 30.0275706 9.82071698 28.3979118 10.2295849 27.9172 11.7504906L20.5457294 34.1161887C19.9902588 35.7118113 21.4340647 36.4901132 23.2867471 36.4901132 24.8784 36.4901132 26.2491176 36.2676226 26.7678353 34.3760377L27.8791941 30.4069057 36.6932176 30.4069057 37.7669882 34.4885283C38.0998529 35.6383396 38.9163529 36.4901132 41.5082706 36.4901132 43.1391824 36.4901132 44.8431824 35.8965283 44.2492882 34.0804906L36.6556294 11.7123019 36.6556294 11.7123019zM29.1388176 25.9189057L32.3622176 14.1244151 35.5100235 25.9189057 29.1388176 25.9189057 29.1388176 25.9189057zM21.3747588 12.157283C21.3747588 10.6363774 20.5590941 9.82113208 19.0772824 9.82113208L2.33464706 9.82113208C.851582353 9.82113208 0 10.6363774 0 12.157283 0 13.6424906.851582353 14.4573208 2.33464706 14.4573208L7.63208235 14.4573208 7.63208235 34.3764528C7.63208235 35.8591698 8.55675294 36.4901132 10.7051294 36.4901132 12.8539235 36.4901132 13.7790118 35.8591698 13.7790118 34.3764528L13.7790118 14.4573208 19.0772824 14.4573208C20.5590941 14.4573208 21.3747588 13.6424906 21.3747588 12.157283M89.2444941 9.82113208C87.2794647 9.82113208 85.9480059 10.4520755 85.3181941 11.9721509L80.9784235 21.9223774 75.9821118 11.9721509C75.3163824 10.674566 74.2793647 9.82113208 71.9455529 9.82113208 70.3902353 9.82113208 68.6490647 10.3769434 69.5382353 11.9721509L77.8352118 27.1446792 77.8352118 34.3768679C77.8352118 35.8595849 78.7607176 36.4896981 80.9095118 36.4896981 83.0203 36.4896981 83.9854824 35.8595849 83.9854824 34.3768679L83.9854824 26.9944151 91.3557 11.9721509C92.1329412 10.2295849 90.5776235 9.82113208 89.2444941 9.82113208M61.5390412 22.3586415L61.5390412 22.2851698C65.3174941 21.5790943 66.7988882 20.0959623 66.7988882 16.7212453 66.7988882 11.1938491 63.3913059 9.82154717 58.0567 9.82154717L51.4265529 9.82154717C48.6111941 9.82154717 47.9446294 11.303434 47.9446294 13.0119623L47.9446294 34.3768679C47.9446294 35.6748679 48.7970471 36.4896981 51.1671941 36.4896981L57.3901353 36.4896981C62.9828471 36.4896981 68.0572588 35.3037736 68.0572588 29.0346038 68.0572588 24.6952075 65.8366294 22.8409811 61.5390412 22.3586415L61.5390412 22.3586415zM53.6868588 14.3842642L57.4636412 14.3842642C60.3917647 14.3842642 61.2061765 15.4240755 61.2061765 17.6477358 61.2061765 20.0598491 59.6880294 21.0610566 56.9470118 21.0610566L53.6868588 21.0610566 53.6868588 14.3842642 53.6868588 14.3842642zM57.1316118 32.1511321L53.6868588 32.1511321 53.6868588 25.2144906 57.2059529 25.2144906C60.3165882 25.2144906 62.1696882 25.4373962 62.1696882 28.5539245 62.1696882 31.3346415 60.3917647 32.1511321 57.1316118 32.1511321L57.1316118 32.1511321z"/>
    <g transform="translate(101)">
      <path d="M20.4246176,44 L20.3298118,43.991283 C20.1272529,43.9717736 0.0668294118,41.8552075 0.0668294118,23.9426415 L0.0668294118,0.284339623 L40.7773941,0.284339623 L40.7773941,23.9426415 C40.7773941,41.8552075 20.7219824,43.9717736 20.5198412,43.991283 L20.4246176,44 L20.4246176,44 Z M2.06025882,2.26558491 L2.06025882,23.9426415 C2.06025882,30.672566 5.12411765,35.7491698 11.1666353,39.0317358 C15.4107647,41.3375849 19.7321588,41.9261887 20.4246176,42.0083774 C21.1149882,41.9261887 25.4359647,41.3384151 29.6800941,39.0317358 C35.7209412,35.7491698 38.7839647,30.672566 38.7839647,23.9426415 L38.7839647,2.26558491 L2.06025882,2.26558491 L2.06025882,2.26558491 Z"/>
      <path d="M33.3194706,18.9141887 L30.9205059,18.9141887 L30.9205059,16.4306792 C30.9205059,15.07 30.2409941,14.5490566 28.9613235,14.5490566 C27.7225824,14.5490566 27.1190824,15.07 27.1190824,16.4306792 L27.1190824,18.9141887 L22.4443588,18.9141887 L22.4443588,14.2281887 L24.9197529,14.2281887 C26.2812824,14.2281887 26.7995824,13.5885283 26.7995824,12.3461509 C26.7995824,11.1041887 26.2812824,10.4246792 24.9197529,10.4246792 L22.4443588,10.4246792 L22.4443588,8.02003774 C22.4443588,6.89886792 21.7623412,6.21645283 20.4450824,6.21645283 C19.1215588,6.21645283 18.4437176,6.89886792 18.4437176,8.02003774 L18.4437176,10.4246792 L15.9257235,10.4246792 C14.6042882,10.4246792 14.0438059,11.1041887 14.0438059,12.3461509 C14.0438059,13.5885283 14.6042882,14.2281887 15.9257235,14.2281887 L18.4437176,14.2281887 L18.4437176,18.9141887 L13.7247235,18.9141887 L13.7247235,16.4306792 C13.7247235,15.07 13.1245647,14.5490566 11.8824824,14.5490566 C10.6036471,14.5490566 9.92246471,15.07 9.92246471,16.4306792 L9.92246471,18.9141887 L7.52308235,18.9141887 C6.40337059,18.9141887 5.72427647,19.5949434 5.72427647,20.9170189 C5.72427647,22.2378491 6.40337059,22.9186038 7.52308235,22.9186038 L9.92246471,22.9186038 L9.92246471,25.4016981 C9.92246471,26.7627925 10.6036471,27.3235849 11.8824824,27.3235849 C13.1245647,27.3235849 13.7247235,26.7627925 13.7247235,25.4016981 L13.7247235,22.9186038 L18.4437176,22.9186038 L18.4437176,27.6440377 L15.9257235,27.6440377 C14.6042882,27.6440377 14.0438059,28.2438491 14.0438059,29.484566 C14.0438059,30.7269434 14.6042882,31.4076981 15.9257235,31.4076981 L18.4437176,31.4076981 L18.4437176,33.8102642 C18.4437176,34.931434 19.1215588,35.6109434 20.4450824,35.6109434 C21.7623412,35.6109434 22.4443588,34.931434 22.4443588,33.8102642 L22.4443588,31.4076981 L24.9197529,31.4076981 C26.2812824,31.4076981 26.7995824,30.7269434 26.7995824,29.484566 C26.7995824,28.2438491 26.2812824,27.6440377 24.9197529,27.6440377 L22.4443588,27.6440377 L22.4443588,22.9186038 L27.1190824,22.9186038 L27.1190824,25.4016981 C27.1190824,26.7627925 27.7225824,27.3235849 28.9613235,27.3235849 C30.2409941,27.3235849 30.9205059,26.7627925 30.9205059,25.4016981 L30.9205059,22.9186038 L33.3194706,22.9186038 C34.4400176,22.9186038 35.1216176,22.2378491 35.1216176,20.9170189 C35.1216176,19.5949434 34.4400176,18.9141887 33.3194706,18.9141887"/>
    </g>
  </g>
</svg>
